PathFileType	4	(X/Y/Z)	C:\Users\°ÂÌØÂü\Desktop\20210112\bx_y_10_1802-Unnamed.trc
DataRate	CameraRate	NumFrames	NumMarkers	Units	OrigDataRate	OrigDataStartFrame	OrigNumFrames
50.00	50.00	       4	0	mm	50.00	1	       652
Frame#	Time	
		

1	0.000	-595.35400	-5.84036	1047.94690				-723.27777	252.16214	639.00165	-699.42920	83.60297	576.26508	-694.10760	143.06239	575.88776	-673.39526	21.68090	520.35883	-729.32117	246.91142	576.37769	-772.86426	256.61411	503.41721	-677.74396	204.14139	533.27222	-716.71442	79.34898	215.68544	-664.32745	-66.62781	163.75412	-712.73700	152.15118	216.63135	-623.91327	-78.21685	160.28311	-882.56006	296.11014	144.61603	-674.30676	56.96624	156.14995	-602.10156	19.17176	165.76643	-560.33362	-43.68600	163.03999	-595.05042	222.37408	173.51010	-666.96826	298.47009	160.44193	-629.70911	306.41461	161.93860	-560.80402	261.53284	164.96864	-528.30975	304.37021	146.56985	-666.76495	132.89796	1852.85754	-709.57178	296.33124	1530.71777				-517.59204	-72.39965	142.82388	-797.07623	172.63222	183.71733	-772.13470	222.92177	204.58203	-699.28113	-54.90108	1561.45349	-766.87598	-4.74555	206.90277	-794.57166	56.41177	175.14581	-792.57257	106.28272	1046.20142	-768.08429	-33.23537	488.44559	-876.03320	-78.59757	141.50241	-702.00037	-48.92709	715.74854	-706.03473	-25.33573	614.76147	-721.19080	-23.07801	566.71436	-675.75720	171.93759	156.58914				-601.33173	112.40397	1436.82410	-579.36407	222.52515	1061.82458	-592.35406	-0.90029	800.41095	-612.72321	277.92529	868.66730	-585.76758	213.80298	810.48389	-651.89331	-66.19186	867.22632	
2	0.020	-595.27716	-5.84752	1047.87256				-723.20398	252.09079	638.82361	-699.40277	83.44849	575.43073	-693.83820	142.89705	576.02679	-673.53387	21.77215	520.11371	-729.20410	246.96666	576.49744	-772.92151	256.49780	503.50516	-677.74396	204.14139	533.27222	-716.92706	79.26347	215.67233	-664.35461	-66.42955	163.79227	-712.56519	151.99939	216.51292	-624.06879	-78.44141	160.16124	-882.62158	296.14899	144.58987	-674.30676	56.96624	156.14995	-602.11353	19.11493	165.71454	-560.27783	-43.69429	163.22232	-594.97913	222.32367	173.45071	-666.80750	298.40274	160.24767	-629.72754	306.48386	161.98407	-560.81549	261.57855	164.92926	-528.21582	304.51608	146.71443	-666.95642	132.95724	1852.86816	-709.57788	296.41046	1530.62341				-517.81104	-72.14381	142.77638	-797.14307	172.56693	183.76643	-771.85443	222.72557	204.58301	-699.31805	-54.85380	1561.47632	-766.82031	-4.66002	206.93414	-794.51740	56.35526	175.11353	-792.41907	106.18197	1046.07117	-768.06702	-33.24983	488.36829	-876.03320	-78.59757	141.50241	-701.97040	-48.91689	715.82257	-705.87634	-25.28128	614.62793	-721.19849	-23.15797	566.63403	-675.51117	171.61116	156.73904				-601.44873	112.40091	1436.88647	-579.24030	222.35600	1061.86084	-592.35834	-0.74621	800.06488	-612.80450	277.84775	868.70520	-585.71973	213.84175	810.41547	
3	0.040	-595.18799	-6.02841	1048.01514	-651.89368	-66.33952	867.21796	-723.33295	251.95670	638.82410	-699.20251	83.22402	575.57416	-693.99323	143.27928	575.78632	-673.51599	21.50869	520.29022	-729.10516	246.54391	576.31818	-772.90051	256.53741	503.41101	-677.74396	204.14139	533.27222	-717.16217	79.07762	215.65652	-664.43500	-66.60792	163.85722	-712.54480	152.16814	216.48338	-623.98657	-78.31024	160.15628	-882.59625	296.22037	144.63243	-674.30676	56.96624	156.14995	-602.10156	19.17176	165.76643	-560.23987	-43.52228	163.10501	-595.06390	222.24283	173.47649	-666.84692	298.59357	160.46651	-629.89032	306.41092	162.06766	-560.75995	261.54739	164.97324	-527.93707	304.33939	146.25540	-667.24249	132.86626	1852.81506	-709.51910	296.38681	1530.59985				-517.69214	-72.19800	142.94347	-797.20190	172.60216	183.76703	-771.96375	222.72913	204.70848	-699.39954	-55.09389	1561.51123	-766.35095	-4.68024	206.87448	-794.57166	56.41177	175.14581	-792.35004	106.20774	1046.04761	-768.03314	-33.35301	488.52451	-876.03320	-78.59757	141.50241	-701.89606	-48.94311	715.90729	-705.78802	-25.37476	614.52856	-721.25580	-23.29153	566.80548	-675.51117	171.61116	156.73904				-601.19531	112.10104	1436.99292	-579.23157	222.39600	1061.85559	-592.37372	-0.89655	800.17773	-612.61658	277.78525	868.69745	-585.60889	213.76048	810.44836	
4	0.060	-595.06512	-5.97480	1048.06116	-651.89331	-66.19186	867.22632	-723.20795	252.11200	639.08820	-699.31073	83.60897	576.09723	-693.92780	143.15846	575.77484	-673.53387	21.77215	520.11371	-729.08325	246.60632	576.35748	-772.87189	256.42905	503.33771	-677.75012	204.19928	533.18567	-716.82916	79.32342	215.54671	-664.35437	-66.58389	163.86633	-712.55536	151.97385	216.62067	-623.98657	-78.31024	160.15628	-882.79480	296.08548	144.51094	-674.30676	56.96624	156.14995	-602.05548	19.18916	165.76537	-560.33112	-43.58846	163.09805	-595.05042	222.37408	173.51010	-666.84576	298.32162	160.13542	-629.84204	306.47946	162.13107	-560.81549	261.57855	164.92926	-528.23975	304.51389	146.36975	-667.40222	132.72833	1852.78662	-709.58313	296.37088	1530.52576				-517.67908	-72.26582	142.77507	-797.12738	172.60703	183.66214	-771.88824	222.74997	204.75525	-699.45941	-54.99533	1561.51868	-766.22845	-4.74906	206.96454	-794.47272	56.38407	175.17259	-792.18542	105.88246	1046.01440	-768.05615	-33.35732	488.36377	-876.13251	-78.56548	141.43300	-701.85449	-48.89769	715.62433	-705.84753	-25.46636	614.49756	-721.12604	-23.27668	566.78436	-675.69312	171.82181	156.61240				-601.21802	112.23900	1436.86035	-578.97833	222.18506	1062.00525	-592.15289	-1.11851	800.47498	-612.46423	277.62360	868.66168	-585.50769	213.83965	810.29187	
